<svg width="1000" height="1000" xmlns="http://www.w3.org/2000/svg">
 <metadata>Svg Vector Icons : http://www.onlinewebfonts.com/icon</metadata>

 <g>
  <title>background</title>
  <rect fill="none" id="canvas_background" height="602" width="802" y="-1" x="-1"/>
 </g>
 <g>
  <title>Layer 1</title>
  <g id="svg_1">
   <path fill="#d3d3d3" id="svg_2" d="m566.2,305.1l-57.2,59.6l-51.6,53.6c-15.5,16.3 -58.9,60.3 -69.3,71.3c-10.4,11 -17,18.1 -19.8,20.9c-6.6,6.9 -11.7,13.2 -15.2,18.8c-3.6,5.6 -6.7,11.8 -9.5,18.6c-2.3,4.4 -5.4,12.5 -9.1,24.2c-3.8,11.8 -7.7,24.7 -11.7,38.6c-4,13.9 -7.8,27.5 -11.2,40.6c-3.7,13 -5.9,22.9 -6.8,29.8c-1.9,12.8 -0.7,21.9 3.6,27.2c4.2,5.5 12.7,7.3 25.4,5.9c6.2,-1 15.5,-3.1 27.9,-6.5c12.5,-3.5 25.8,-7.4 39.6,-12.1c13.8,-4.7 27.2,-9.4 40,-14.3c12.8,-4.9 22.4,-9.1 28.9,-12.5c6.6,-3 13,-6.9 19.1,-11.7c6.1,-5 11.5,-9.6 16.2,-14c1.9,-1.5 7.8,-7.4 17.7,-17.8c9.9,-10.2 22.4,-23.4 37.5,-39.3c15,-16 62.5,-64 81.3,-83.1l56.5,-59.6l147.5,-156l-133.3,-134.8l-146.5,152.6l0,0l0,0zm324,84.8l0,220.1l0,137.2l0,-0.9l0,29.1c0,75.3 -61.4,136.6 -136.7,136.6l-165.3,0l-0.1,0l-176,0l0,0l-165.4,0c-75.3,0 -136.6,-61.3 -136.6,-136.6l0,-30.7l0,-0.3l0,-354.4l0,-139.2l0,2l0,-28.3c0,-75.3 61.3,-136.6 136.6,-136.6l165.4,0l99.9,0l45.7,0l23.3,0l92.5,-77.9l-30.6,0l0,0l-396.2,0c-114.9,0 -209,90.7 -214.4,204.2l-0.3,0l0,10.4l0,1.8l0,0l0,549.1l0,10.3l0.2,0c5.5,113.5 99.6,204.2 214.4,204.2l3.9,0l499.2,0l3.8,0c114.8,0 208.9,-90.7 214.3,-204.2l0.2,0l0,-10.3l0,-462.2l-77.8,76.6l0,0l0,0zm-18.7,-349.1c-5.1,-1 -10,-1.4 -14.6,-1.3l2,0c4.4,0.2 8.5,0.6 12.6,1.3l0,0l0,0zm84.3,99.4c0.6,-13.7 -3,-28.9 -10.7,-43.3c-5.3,-9.9 -12.4,-19.3 -21.2,-28c-15.8,-15.3 -34.5,-24.9 -52.4,-28.1c-4.1,-0.8 -8.3,-1.2 -12.6,-1.3l-2,0c-7.9,-0.1 -16,1.2 -24,3.7c-8.6,2.7 -17.3,7.5 -25.6,14.1c-6.3,5.6 -14.4,13 -24,22.5c-9.8,9.4 -18.2,17.6 -25.2,24.3l132.5,134.7c4.1,-3.7 8.6,-7.9 13.4,-12.8c3.9,-4.3 8.8,-9.1 14.4,-14.7c5.7,-5.5 11.8,-11.9 18.7,-19.2c6.5,-7.3 11.2,-15 14.2,-22.9c3,-8 4.3,-16 4.3,-23.9c0.2,-1.6 0.2,-3.3 0.2,-5.1l0,0l0,0z"/>
  </g>
 </g>
</svg>