<svg width="44.438" height="44.438" xmlns="http://www.w3.org/2000/svg">

 <g>
  <title>background</title>
  <rect fill="none" id="canvas_background" height="28" width="29" y="-1" x="-1"/>
 </g>
 <g>
  <title>Layer 1</title>
  <g id="svg_1">
   <g id="svg_2">
    <path fill="#d3d3d3" id="svg_3" d="m40.271,0l-36.104,0c-2.301,0 -4.167,1.866 -4.167,4.167l0,36.104c0,2.301 1.866,4.167 4.167,4.167l36.103,0c2.301,0 4.167,-1.866 4.167,-4.167l0,-36.104c0.001,-2.301 -1.866,-4.167 -4.166,-4.167zm-25.737,15.125c0,-2.5 1.814,-3.623 4.052,-2.504l9.639,4.82c2.237,1.119 2.237,2.932 0,4.052l-9.639,4.819c-2.237,1.119 -4.052,-0.003 -4.052,-2.504l0,-8.683zm23.57,25.323l-31.77,0c-2.014,0 -3.646,-1.631 -3.646,-3.646c0,-2.014 1.632,-3.646 3.646,-3.646l31.771,0c2.015,0 3.646,1.632 3.646,3.646c0,2.015 -1.632,3.646 -3.647,3.646z"/>
    <path fill="#d3d3d3" id="svg_4" d="m38.848,36.021l-30.385,0c-0.347,-0.545 -0.952,-0.911 -1.647,-0.911c-1.08,0 -1.953,0.875 -1.953,1.953s0.874,1.953 1.953,1.953c0.695,0 1.3,-0.366 1.647,-0.912l30.384,0c0.574,0 1.041,-0.466 1.041,-1.041c0.001,-0.576 -0.466,-1.042 -1.04,-1.042z"/>
   </g>
  </g>
  <g id="svg_5"/>
  <g id="svg_6"/>
  <g id="svg_7"/>
  <g id="svg_8"/>
  <g id="svg_9"/>
  <g id="svg_10"/>
  <g id="svg_11"/>
  <g id="svg_12"/>
  <g id="svg_13"/>
  <g id="svg_14"/>
  <g id="svg_15"/>
  <g id="svg_16"/>
  <g id="svg_17"/>
  <g id="svg_18"/>
  <g id="svg_19"/>
 </g>
</svg>