<svg width="489.4" height="489.4" xmlns="http://www.w3.org/2000/svg">

 <g>
  <title>background</title>
  <rect fill="none" id="canvas_background" height="702" width="902" y="-1" x="-1"/>
 </g>
 <g>
  <title>Layer 1</title>
  <g id="svg_1">
   <g id="svg_2">
    <path fill="#d3d3d3" id="svg_3" d="m382.4,422.75l-79.1,0l-21.3,0l-4.6,0l0,-106.1l34.7,0c8.8,0 14,-10 8.8,-17.2l-67.5,-93.4c-4.3,-6 -13.2,-6 -17.5,0l-67.5,93.4c-5.2,7.2 -0.1,17.2 8.8,17.2l34.7,0l0,106.1l-4.6,0l-21.3,0l-91.7,0c-52.5,-2.9 -94.3,-52 -94.3,-105.2c0,-36.7 19.9,-68.7 49.4,-86c-2.7,-7.3 -4.1,-15.1 -4.1,-23.3c0,-37.5 30.3,-67.8 67.8,-67.8c8.1,0 15.9,1.4 23.2,4.1c21.7,-46 68.5,-77.9 122.9,-77.9c70.4,0.1 128.4,54 135,122.7c54.1,9.3 95.2,59.4 95.2,116.1c0,60.6 -47.2,113.1 -107,117.3z"/>
   </g>
  </g>
  <g id="svg_4"/>
  <g id="svg_5"/>
  <g id="svg_6"/>
  <g id="svg_7"/>
  <g id="svg_8"/>
  <g id="svg_9"/>
  <g id="svg_10"/>
  <g id="svg_11"/>
  <g id="svg_12"/>
  <g id="svg_13"/>
  <g id="svg_14"/>
  <g id="svg_15"/>
  <g id="svg_16"/>
  <g id="svg_17"/>
  <g id="svg_18"/>
 </g>
</svg>