<svg width="26" height="26" xmlns="http://www.w3.org/2000/svg">
 <g>
  <title>background</title>
  <rect x="-1" y="-1" width="28" height="28" id="canvas_background" fill="none"/>
 </g>

 <g>
  <title>Layer 1</title>
  <g id="svg_1">
   <path d="m13,0c-7.18,0 -13,5.82 -13,13s5.82,13 13,13c7.18,0 13,-5.82 13,-13s-5.82,-13 -13,-13zm0,20c-3.865,0 -7,-3.135 -7,-7c0,-3.75 2.953,-6.803 6.658,-6.982c-1.602,1.077 -2.658,2.906 -2.658,4.982c0,3.314 2.687,6 6,6c1.227,0 2.367,-0.37 3.318,-1.003c-1.123,2.364 -3.527,4.003 -6.318,4.003z" id="svg_2" fill="#d3d3d3"/>
  </g>
 </g>
</svg>