<svg width="448" height="448" xmlns="http://www.w3.org/2000/svg">

 <g>
  <title>background</title>
  <rect fill="none" id="canvas_background" height="602" width="802" y="-1" x="-1"/>
 </g>
 <g>
  <title>Layer 1</title>
  <path fill="#d3d3d3" id="svg_1" d="m408,184l-136,0c-4.41797,0 -8,-3.58203 -8,-8l0,-136c0,-22.08984 -17.91016,-40 -40,-40s-40,17.91016 -40,40l0,136c0,4.41797 -3.58203,8 -8,8l-136,0c-22.08984,0 -40,17.91016 -40,40s17.91016,40 40,40l136,0c4.41797,0 8,3.58203 8,8l0,136c0,22.08984 17.91016,40 40,40s40,-17.91016 40,-40l0,-136c0,-4.41797 3.58203,-8 8,-8l136,0c22.08984,0 40,-17.91016 40,-40s-17.91016,-40 -40,-40zm0,0"/>
 </g>
</svg>