<svg width="512" height="512" xmlns="http://www.w3.org/2000/svg">

 <g>
  <title>background</title>
  <rect fill="none" id="canvas_background" height="28" width="29" y="-1" x="-1"/>
 </g>
 <g>
  <title>Layer 1</title>
  <g id="svg_1">
   <g id="svg_2">
    <path fill="#d3d3d3" id="svg_3" d="m340.636,307.787l-120.5,-80.334c-4.602,-3.069 -10.521,-3.355 -15.398,-0.745c-4.877,2.61 -7.922,7.693 -7.922,13.226l0,160.667c0,5.532 3.045,10.615 7.922,13.225c2.218,1.186 4.65,1.774 7.077,1.774c2.91,0 5.812,-0.846 8.321,-2.52l120.5,-80.333c4.173,-2.781 6.68,-7.465 6.68,-12.48s-2.507,-9.698 -6.68,-12.48zm-113.82,64.787l0,-104.612l78.458,52.306l-78.458,52.306z"/>
   </g>
  </g>
  <g id="svg_4">
   <g id="svg_5">
    <path fill="#d3d3d3" id="svg_6" d="m497,128.533l-482,0c-8.284,0 -15,6.716 -15,15l0,353.467c0,8.284 6.716,15 15,15l482,0c8.284,0 15,-6.716 15,-15l0,-353.467c0,-8.284 -6.716,-15 -15,-15zm-15,353.467l-452,0l0,-323.467l452,0l0,323.467z"/>
   </g>
  </g>
  <g id="svg_7">
   <g id="svg_8">
    <path fill="#d3d3d3" id="svg_9" d="m448.801,64.268l-385.6,0c-8.284,0 -15,6.716 -15,15s6.716,15 15,15l385.6,0c8.284,0 15,-6.716 15,-15s-6.716,-15 -15,-15z"/>
   </g>
  </g>
  <g id="svg_10">
   <g id="svg_11">
    <path fill="#d3d3d3" id="svg_12" d="m400.6,0l-289.2,0c-8.284,0 -15,6.716 -15,15s6.716,15 15,15l289.2,0c8.284,0 15,-6.716 15,-15s-6.716,-15 -15,-15z"/>
   </g>
  </g>
  <g id="svg_13"/>
  <g id="svg_14"/>
  <g id="svg_15"/>
  <g id="svg_16"/>
  <g id="svg_17"/>
  <g id="svg_18"/>
  <g id="svg_19"/>
  <g id="svg_20"/>
  <g id="svg_21"/>
  <g id="svg_22"/>
  <g id="svg_23"/>
  <g id="svg_24"/>
  <g id="svg_25"/>
  <g id="svg_26"/>
  <g id="svg_27"/>
 </g>
</svg>