<svg width="512" height="512" xmlns="http://www.w3.org/2000/svg">

 <g>
  <title>background</title>
  <rect fill="none" id="canvas_background" height="602" width="802" y="-1" x="-1"/>
 </g>
 <g>
  <title>Layer 1</title>
  <g id="svg_1">
   <g id="svg_2">
    <path fill="#d3d3d3" id="svg_3" d="m496.659,312.107l-47.061,-36.8c0.597,-5.675 1.109,-12.309 1.109,-19.328c0,-7.019 -0.491,-13.653 -1.109,-19.328l47.104,-36.821c8.747,-6.912 11.136,-19.179 5.568,-29.397l-48.939,-84.673c-5.227,-9.557 -16.683,-14.464 -28.309,-10.176l-55.531,22.293c-10.645,-7.68 -21.803,-14.165 -33.344,-19.349l-8.448,-58.901c-1.387,-11.179 -11.115,-19.627 -22.613,-19.627l-98.133,0c-11.499,0 -21.205,8.448 -22.571,19.456l-8.469,59.115c-11.179,5.035 -22.165,11.435 -33.28,19.349l-55.68,-22.357c-10.433,-4.032 -22.913,0.49 -28.097,10.005l-49.002,84.779c-5.781,9.771 -3.392,22.464 5.547,29.547l47.061,36.8c-0.747,7.189 -1.109,13.44 -1.109,19.307s0.363,12.117 1.109,19.328l-47.104,36.821c-8.747,6.933 -11.115,19.2 -5.547,29.397l48.939,84.672c5.227,9.536 16.576,14.485 28.309,10.176l55.531,-22.293c10.624,7.659 21.781,14.144 33.323,19.349l8.448,58.88c1.386,11.221 11.093,19.669 22.613,19.669l98.133,0c11.499,0 21.227,-8.448 22.592,-19.456l8.469,-59.093c11.179,-5.056 22.144,-11.435 33.28,-19.371l55.68,22.357c2.688,1.045 5.483,1.579 8.363,1.579c8.277,0 15.893,-4.523 19.733,-11.563l49.152,-85.12c5.462,-9.984 3.072,-22.25 -5.717,-29.226zm-240.64,29.226c-47.061,0 -85.333,-38.272 -85.333,-85.333s38.272,-85.333 85.333,-85.333s85.333,38.272 85.333,85.333s-38.272,85.333 -85.333,85.333z"/>
   </g>
  </g>
  <g id="svg_4"/>
  <g id="svg_5"/>
  <g id="svg_6"/>
  <g id="svg_7"/>
  <g id="svg_8"/>
  <g id="svg_9"/>
  <g id="svg_10"/>
  <g id="svg_11"/>
  <g id="svg_12"/>
  <g id="svg_13"/>
  <g id="svg_14"/>
  <g id="svg_15"/>
  <g id="svg_16"/>
  <g id="svg_17"/>
  <g id="svg_18"/>
 </g>
</svg>