<svg width="27" height="26" xmlns="http://www.w3.org/2000/svg">
 <g>
  <title>background</title>
  <rect x="-1" y="-1" width="29" height="28" id="canvas_background" fill="none"/>
 </g>

 <g>
  <title>Layer 1</title>
  <path d="m17.375,25.5006l0,-6.4583c0,-1.0277 -0.4082,-2.0133 -1.1349,-2.74c-0.7268,-0.7268 -1.7124,-1.135 -2.7401,-1.135c-1.0277,0 -2.0133,0.4082 -2.74,1.135c-0.7267,0.7267 -1.13499,1.7123 -1.13499,2.74l0,6.4583l-6.45833,0c-0.68515,0 -1.34223,-0.2721 -1.8267,-0.7566c-0.48446,-0.4845 -0.75664,-1.1416 -0.75664,-1.8267l0,-14.03784c0,-0.44611 0.11552,-0.88461 0.33531,-1.27282c0.21979,-0.3882 0.53637,-0.71287 0.9189,-0.94239l10.33335,-6.2c0.4015,-0.2409 0.8609,-0.36815 1.3291,-0.36815c0.4682,0 0.9276,0.12725 1.3291,0.36815l10.3334,6.2c0.3825,0.22952 0.6991,0.55419 0.9189,0.94239c0.2198,0.38821 0.3353,0.82671 0.3353,1.27282l0,14.03784c0,0.6851 -0.2722,1.3422 -0.7567,1.8267c-0.4844,0.4845 -1.1415,0.7566 -1.8267,0.7566l-6.4583,0z" fill="#d3d3d3" id="svg_1"/>
 </g>
</svg>